<svg width="42" height="41" viewBox="0 0 42 41" fill="none" xmlns="http://www.w3.org/2000/svg">
<g opacity="0.84992" clip-path="url(#clip0_11_460)">
<path d="M2.75124 8.51221H26.5484C27.6493 8.51221 28.5429 9.4052 28.5429 10.5055C28.5429 11.6057 27.6493 12.4988 26.5484 12.4988H2.75124C1.65033 12.4988 0.756836 11.6057 0.756836 10.5055C0.756836 9.4052 1.65033 8.51221 2.75124 8.51221Z" fill="black" fill-opacity="0.4"/>
<mask id="mask0_11_460" style="mask-type:alpha" maskUnits="userSpaceOnUse" x="24" y="0" width="18" height="22">
<path fill-rule="evenodd" clip-rule="evenodd" d="M24.4187 21.4653V0H41.5798V21.4653H24.4187Z" fill="white"/>
</mask>
<g mask="url(#mask0_11_460)">
<path d="M25.7656 0.183228C26.017 0.183228 26.2648 0.253226 26.4839 0.389637L40.7362 9.36584C41.1277 9.61352 41.3666 10.0425 41.3666 10.5055C41.3666 10.9686 41.1277 11.3977 40.7362 11.6453L26.4839 20.6215C26.0691 20.8818 25.5447 20.898 25.1155 20.6592C24.6845 20.4223 24.4187 19.9718 24.4187 19.4818V1.52939C24.4187 1.03938 24.6845 0.58887 25.1155 0.351945C25.3184 0.238867 25.5429 0.183228 25.7656 0.183228Z" fill="black"/>
</g>
<path d="M39.319 32.059H15.5218C14.4208 32.059 13.5273 31.1659 13.5273 30.0657C13.5273 28.9653 14.4208 28.0724 15.5218 28.0724H39.319C40.4198 28.0724 41.3134 28.9653 41.3134 30.0657C41.3134 31.1659 40.4198 32.059 39.319 32.059Z" fill="black" fill-opacity="0.4"/>
<mask id="mask1_11_460" style="mask-type:alpha" maskUnits="userSpaceOnUse" x="0" y="19" width="18" height="22">
<path fill-rule="evenodd" clip-rule="evenodd" d="M17.5156 19.1058V40.5711H0.354492V19.1058H17.5156Z" fill="white"/>
</mask>
<g mask="url(#mask1_11_460)">
<path d="M16.1688 40.3878C15.9174 40.3878 15.6696 40.3178 15.4505 40.1815L1.19823 31.2053C0.806727 30.9575 0.567871 30.5286 0.567871 30.0655C0.567871 29.6025 0.806727 29.1734 1.19823 28.9258L15.4505 19.9496C15.8653 19.6893 16.3898 19.6732 16.8189 19.9118C17.25 20.1488 17.5157 20.5993 17.5157 21.0893V39.0418C17.5157 39.5317 17.25 39.9822 16.8189 40.2191C16.616 40.3322 16.3915 40.3878 16.1688 40.3878Z" fill="black"/>
</g>
</g>
<defs>
<clipPath id="clip0_11_460">
<rect width="42" height="41" fill="white"/>
</clipPath>
</defs>
</svg>
