<svg width="25" height="33" viewBox="0 0 25 33" fill="none" xmlns="http://www.w3.org/2000/svg">
<g clip-path="url(#clip0_11_540)">
<path d="M6.7085 12.568V8.34884C6.7085 6.78227 7.32834 5.27986 8.43166 4.17213C9.53498 3.0644 11.0314 2.44208 12.5918 2.44208C14.1521 2.44208 15.6485 3.0644 16.7518 4.17213C17.8552 5.27986 18.475 6.78227 18.475 8.34884V12.568" stroke="black" stroke-opacity="0.4" stroke-width="4" stroke-linecap="round" stroke-linejoin="round"/>
<path d="M20.758 11.2656H4.42578C2.21664 11.2656 0.425781 13.0565 0.425781 15.2656V28.6012C0.425781 30.8104 2.21664 32.6012 4.42578 32.6012H20.758C22.9671 32.6012 24.758 30.8104 24.758 28.6012V15.2656C24.758 13.0565 22.9671 11.2656 20.758 11.2656Z" fill="black"/>
</g>
<defs>
<clipPath id="clip0_11_540">
<rect width="25" height="33" fill="white"/>
</clipPath>
</defs>
</svg>
