<svg width="36" height="37" viewBox="0 0 36 37" fill="none" xmlns="http://www.w3.org/2000/svg">
<g clip-path="url(#clip0_11_532)">
<path d="M17.5917 36.1134C27.3073 36.1134 35.1834 28.2373 35.1834 18.5217C35.1834 8.80606 27.3073 0.929993 17.5917 0.929993C7.87607 0.929993 0 8.80606 0 18.5217C0 28.2373 7.87607 36.1134 17.5917 36.1134Z" fill="black" fill-opacity="0.4"/>
<path d="M21.0349 7.65792C21.0349 7.21247 20.4963 6.98939 20.1814 7.30437L8.71114 18.7746C8.59071 18.8952 8.50871 19.0487 8.47551 19.2159C8.4423 19.383 8.45938 19.5563 8.52457 19.7137C8.58977 19.8712 8.70016 20.0058 8.84181 20.1005C8.98346 20.1953 9.15001 20.2459 9.32043 20.2461H13.6488C13.9249 20.2461 14.1488 20.47 14.1488 20.7461V29.3855C14.1488 29.8309 14.6873 30.054 15.0023 29.739L26.4726 18.2688C26.593 18.1482 26.675 17.9946 26.7082 17.8275C26.7414 17.6603 26.7243 17.4871 26.6591 17.3296C26.5939 17.1722 26.4835 17.0376 26.3419 16.9428C26.2002 16.8481 26.0337 16.7974 25.8633 16.7973H21.5349C21.2588 16.7973 21.0349 16.5734 21.0349 16.2973V7.65792Z" fill="black"/>
</g>
<defs>
<clipPath id="clip0_11_532">
<rect width="36" height="37" fill="white"/>
</clipPath>
</defs>
</svg>
