<svg width="94" height="94" viewBox="0 0 94 94" fill="none" xmlns="http://www.w3.org/2000/svg">
<rect width="94" height="94" rx="47" fill="#545454"/>
<path d="M47 28.3125C36.6958 28.3125 28.3125 36.6958 28.3125 47C28.3125 57.3042 36.6958 65.6875 47 65.6875C57.3042 65.6875 65.6875 57.3042 65.6875 47C65.6875 36.6958 57.3042 28.3125 47 28.3125ZM42.488 38.808C43.6264 37.6014 45.2283 36.9375 47 36.9375C48.7717 36.9375 50.3593 37.6059 51.5021 38.8188C52.6602 40.0479 53.2235 41.6992 53.0905 43.4745C52.8246 47 50.0933 49.875 47 49.875C43.9067 49.875 41.17 47 40.9095 43.4736C40.7774 41.6839 41.3398 40.0272 42.488 38.808ZM47 62.8125C44.8891 62.8139 42.7994 62.3914 40.8548 61.57C38.9103 60.7487 37.1504 59.5452 35.6797 58.031C36.522 56.8298 37.5953 55.8084 38.8368 55.0266C41.1269 53.5586 44.0253 52.75 47 52.75C49.9747 52.75 52.8731 53.5586 55.1605 55.0266C56.403 55.8081 57.4773 56.8294 58.3203 58.031C56.8497 59.5454 55.0899 60.749 53.1453 61.5703C51.2007 62.3917 49.1109 62.8141 47 62.8125Z" fill="#4BFFB3"/>
</svg>
