<svg width="94" height="94" viewBox="0 0 94 94" fill="none" xmlns="http://www.w3.org/2000/svg">
<rect width="94" height="94" rx="47" fill="#545454"/>
<path d="M57.0625 41.25H55.625V34.0625C55.625 31.775 54.7163 29.5812 53.0988 27.9637C51.4813 26.3462 49.2875 25.4375 47 25.4375C44.7125 25.4375 42.5187 26.3462 40.9012 27.9637C39.2837 29.5812 38.375 31.775 38.375 34.0625V41.25H36.9375C35.413 41.2517 33.9514 41.858 32.8735 42.936C31.7955 44.0139 31.1892 45.4755 31.1875 47V62.8125C31.1892 64.337 31.7955 65.7986 32.8735 66.8765C33.9514 67.9545 35.413 68.5608 36.9375 68.5625H57.0625C58.587 68.5608 60.0486 67.9545 61.1265 66.8765C62.2045 65.7986 62.8108 64.337 62.8125 62.8125V47C62.8108 45.4755 62.2045 44.0139 61.1265 42.936C60.0486 41.858 58.587 41.2517 57.0625 41.25ZM52.75 41.25H41.25V34.0625C41.25 32.5375 41.8558 31.075 42.9341 29.9966C44.0125 28.9183 45.475 28.3125 47 28.3125C48.525 28.3125 49.9875 28.9183 51.0659 29.9966C52.1442 31.075 52.75 32.5375 52.75 34.0625V41.25Z" fill="#4BFFB3"/>
</svg>
