<svg width="48" height="38" viewBox="0 0 48 38" fill="none" xmlns="http://www.w3.org/2000/svg">
<path d="M8.56819 17.1561V28.1524C8.56819 29.8853 9.97709 31.2942 11.71 31.2942H32.1318C33.8647 31.2942 35.2736 29.8853 35.2736 28.1524V17.1561C35.2736 15.4232 33.8647 14.0143 32.1318 14.0143H11.71C9.97709 14.0143 8.56819 15.4232 8.56819 17.1561ZM11.71 25.0106C13.4429 25.0106 14.8518 26.4195 14.8518 28.1524H11.71V25.0106ZM14.8518 17.1561C14.8518 18.889 13.4429 20.2979 11.71 20.2979V17.1561H14.8518ZM32.1318 25.0106V28.1524H28.99C28.99 26.4195 30.3989 25.0106 32.1318 25.0106ZM28.99 17.1561H32.1318V20.2979C30.3989 20.2979 28.99 18.889 28.99 17.1561ZM17.9936 22.6543C17.9936 21.6127 18.4074 20.6138 19.1439 19.8773C19.8804 19.1408 20.8793 18.727 21.9209 18.727C22.9625 18.727 23.9614 19.1408 24.6979 19.8773C25.4344 20.6138 25.8481 21.6127 25.8481 22.6543C25.8481 23.6958 25.4344 24.6948 24.6979 25.4313C23.9614 26.1678 22.9625 26.5815 21.9209 26.5815C20.8793 26.5815 19.8804 26.1678 19.1439 25.4313C18.4074 24.6948 17.9936 23.6958 17.9936 22.6543ZM6.21183 18.3343C6.21183 17.6814 5.68656 17.1561 5.03365 17.1561C4.38074 17.1561 3.85547 17.6814 3.85547 18.3343V30.1161C3.85547 33.3708 6.49164 36.007 9.74636 36.007H29.3827C30.0356 36.007 30.5609 35.4817 30.5609 34.8288C30.5609 34.1759 30.0356 33.6506 29.3827 33.6506H9.74636C7.79255 33.6506 6.21183 32.0699 6.21183 30.1161V18.3343Z" fill="#4BFFB3"/>
<path d="M29.1645 7.90515V11.3961M27.419 9.6506H30.9099" stroke="#4BFFB3" stroke-width="0.872725" stroke-linecap="round" stroke-linejoin="round"/>
<path d="M36.1462 3.54175V8.7781M33.5281 6.15992H38.7644" stroke="#4BFFB3" stroke-width="1.30909" stroke-linecap="round" stroke-linejoin="round"/>
<path d="M40.5098 10.5234V17.5052M37.0189 14.0143H44.0007" stroke="#4BFFB3" stroke-width="1.30909" stroke-linecap="round" stroke-linejoin="round"/>
</svg>
